<svg xmlns="http://www.w3.org/2000/svg" width="576" height="486"><path fill="#131313" d="M0 0h576v486H0Z"/><path fill="silver" d="M0 0h82.29v324H0Z"/><path fill="#c0c000" d="M82.29 0v324h82.28V0Z"/><path fill="#00c0c0" d="M164.57 0v324h82.29V0Z"/><path fill="#00c000" d="M246.86 0v324h82.28V0Z"/><path fill="#c000c0" d="M329.14 0v324h82.29V0Z"/><path fill="#c00000" d="M411.43 0v324h82.28V0Z"/><path fill="#0000c0" d="M493.71 0v324H576V0ZM0 324h82.29v40.5H0Z"/><path fill="#c000c0" d="M164.57 324h82.29v40.5h-82.29z"/><path fill="#00c0c0" d="M329.14 324h82.29v40.5h-82.29z"/><path fill="silver" d="M493.71 324H576v40.5h-82.29z"/><path fill="#00214c" d="M0 364.5h102.86V486H0Z"/><path fill="#fff" d="M102.86 364.5H205.7V486H102.86Z"/><path fill="#32006a" d="M205.71 364.5h102.86V486H205.71Z"/><path fill="#090909" d="M411.43 364.5h27.43V486h-27.43z"/><path fill="#1d1d1d" d="M466.29 364.5h27.42V486H466.3z"/></svg>