<svg xmlns="http://www.w3.org/2000/svg" width="1920" height="1080"><defs><linearGradient id="a" x1="0" x2="1" y1="0" y2="0"><stop offset="0"/><stop offset="1" stop-color="#fff"/></linearGradient></defs><path d="M0 0h1920v1080H0Z"/><path fill="#666" d="M0 0h240v630H0Z"/><path fill="#bfbfbf" d="M240 0h205v630H240Z"/><path fill="#bfbf00" d="M445 0h206v630H445Z"/><path fill="#00bfbf" d="M651 0h206v630H651Z"/><path fill="#00bf00" d="M857 0h206v630H857Z"/><path fill="#bf00bf" d="M1063 0h206v630h-206Z"/><path fill="#bf0000" d="M1269 0h206v630h-206Z"/><path fill="#0000bf" d="M1475 0h205v630h-205Z"/><path fill="#666" d="M1680 0h240v630h-240Z"/><path fill="#0ff" d="M0 630h240v90H0Z"/><path fill="#003f69" d="M240 630h205v90H240Z"/><path fill="#bfbfbf" d="M445 630h1235v90H445Z"/><path fill="#00f" d="M1680 630h240v90h-240Z"/><path fill="#ff0" d="M0 720h240v90H0Z"/><path fill="#410078" d="M240 720h205v90H240Z"/><path fill="url(#a)" d="M445 720h1235v90H445Z"/><path fill="red" d="M1680 720h240v90h-240Z"/><path fill="#262626" d="M0 810h240v270H0Z"/><path fill="#050505" d="M240 810h309v270H240Z"/><path fill="#fff" d="M549 810h411v270H549Z"/><path fill="#050505" d="M960 810h171v270H960Z"/><path d="M1131 810h69v270h-69Z"/><path fill="#050505" d="M1200 810h68v270h-68Z"/><path fill="#0a0a0a" d="M1268 810h69v270h-69Z"/><path fill="#050505" d="M1337 810h68v270h-68Z"/><path fill="#0f0f0f" d="M1405 810h69v270h-69Z"/><path fill="#050505" d="M1474 810h206v270h-206Z"/><path fill="#262626" d="M1680 810h240v270h-240Z"/></svg>